<?xml version="1.0" standalone="no"?>
<!DOCTYPE svg PUBLIC "-//W3C//DTD SVG 20010904//EN"
 "http://www.w3.org/TR/2001/REC-SVG-20010904/DTD/svg10.dtd">
<svg version="1.0" xmlns="http://www.w3.org/2000/svg"
 width="225.000000pt" height="225.000000pt" viewBox="0 0 225.000000 225.000000"
 preserveAspectRatio="xMidYMid meet">

<g transform="translate(0.000000,225.000000) scale(0.100000,-0.100000)"
fill="#000000" stroke="none">
<path d="M837 2122 c-34 -37 -18 -158 29 -228 l26 -38 -23 -16 c-81 -52 -143
-135 -164 -219 -11 -39 -18 -48 -61 -71 -59 -32 -106 -90 -134 -169 l-22 -58
-46 8 c-62 12 -121 54 -151 108 -18 34 -25 66 -31 144 -7 104 -18 127 -62 127
-37 0 -58 -36 -58 -97 0 -70 22 -179 45 -223 44 -86 152 -161 252 -176 l44 -6
-3 -117 -3 -116 -220 -3 c-210 -2 -221 -3 -238 -23 -22 -27 -22 -52 1 -72 15
-14 51 -17 238 -19 l219 -3 5 -115 c3 -63 1 -118 -3 -121 -5 -4 -29 -9 -53
-13 -50 -6 -127 -43 -171 -80 -64 -54 -113 -188 -113 -311 0 -63 20 -95 60
-95 44 0 60 31 60 116 0 39 7 91 15 115 31 86 122 149 216 149 36 0 39 -3 71
-62 19 -37 64 -94 109 -139 62 -63 93 -85 170 -122 52 -25 118 -50 147 -56 76
-16 228 -13 297 4 178 46 342 176 416 328 21 42 26 47 57 47 63 0 115 -23 163
-70 52 -52 69 -102 69 -202 0 -77 18 -108 60 -108 50 0 64 35 56 136 -16 211
-110 318 -316 358 l-25 5 3 108 c2 59 5 114 7 120 3 10 57 13 224 13 l221 0
17 26 c15 24 15 29 2 53 l-15 26 -224 5 -225 5 0 115 0 114 60 16 c149 40 230
123 260 266 22 102 20 179 -5 204 -23 23 -49 25 -75 6 -15 -11 -20 -32 -25
-113 -6 -78 -13 -110 -31 -144 -31 -56 -94 -100 -152 -106 -44 -5 -46 -4 -53
23 -20 85 -91 174 -162 203 -17 7 -32 19 -32 27 0 32 -44 128 -79 172 -21 26
-56 58 -78 72 l-39 24 30 50 c26 42 32 61 35 128 4 90 -5 108 -55 108 -41 0
-54 -21 -54 -85 0 -52 -16 -89 -55 -125 -24 -23 -36 -25 -125 -28 -76 -3 -105
0 -129 13 -45 23 -71 70 -71 130 0 30 -7 60 -16 73 -19 27 -64 29 -87 4z m464
-365 c82 -41 149 -141 149 -225 0 -35 -6 -49 -29 -73 l-29 -29 -262 0 c-287 0
-298 2 -319 60 -21 61 20 174 81 225 67 57 101 66 243 63 101 -2 138 -7 166
-21z m-562 -369 c44 -54 94 -71 219 -76 l112 -5 0 -538 0 -539 -30 0 c-45 0
-156 44 -217 86 -107 74 -185 188 -218 322 -14 52 -16 113 -13 360 4 328 10
359 70 424 29 31 31 32 42 14 6 -10 22 -32 35 -48z m848 40 c30 -33 49 -75 62
-136 15 -70 15 -573 0 -644 -20 -95 -76 -197 -148 -269 -85 -85 -156 -122
-293 -153 l-28 -6 0 544 0 544 118 4 c81 3 126 9 148 21 33 17 104 90 104 107
0 17 15 11 37 -12z"/>
</g>
</svg>
