<?xml version="1.0" standalone="no"?>
<!DOCTYPE svg PUBLIC "-//W3C//DTD SVG 20010904//EN"
 "http://www.w3.org/TR/2001/REC-SVG-20010904/DTD/svg10.dtd">
<svg version="1.0" xmlns="http://www.w3.org/2000/svg"
 width="225.000000pt" height="225.000000pt" viewBox="0 0 225.000000 225.000000"
 preserveAspectRatio="xMidYMid meet">

<g transform="translate(0.000000,225.000000) scale(0.100000,-0.100000)"
fill="#000000" stroke="none">
<path d="M1818 2051 c-115 -45 -270 -175 -360 -301 -80 -113 -152 -278 -183
-422 -4 -22 -11 -28 -30 -28 -31 0 -31 4 -3 43 30 42 30 102 1 143 -24 33 -21
44 9 44 10 0 18 5 18 10 0 6 -9 10 -20 10 -28 0 -25 14 11 55 24 27 27 35 14
35 -9 0 -25 -5 -36 -10 -10 -6 -19 -7 -19 -2 0 16 49 63 82 78 l33 14 -40 -6
c-50 -8 -72 -19 -108 -53 -24 -22 -29 -23 -37 -11 -7 11 -10 7 -10 -17 0 -18
-5 -33 -10 -33 -6 0 -8 -11 -4 -25 6 -23 4 -25 -30 -25 -78 0 -135 -45 -122
-96 4 -16 2 -24 -6 -24 -10 0 -9 -3 1 -9 11 -7 10 -10 -5 -14 -14 -3 -12 -5 7
-6 40 -2 67 -75 33 -88 -14 -5 -12 -8 7 -19 47 -25 -6 -26 -181 -4 -161 21
-174 21 -214 6 -23 -9 -60 -35 -82 -57 -25 -27 -31 -37 -17 -30 29 15 43 14
43 -2 0 -14 31 -47 43 -47 3 0 -2 13 -11 30 -16 27 -16 31 -1 46 14 13 21 14
39 4 l23 -12 -24 -20 -24 -19 35 3 c29 2 38 9 49 36 17 37 28 39 105 12 31
-10 86 -22 122 -25 37 -3 85 -10 108 -15 22 -5 62 -10 89 -10 l47 0 0 -39 c0
-68 5 -73 69 -65 46 5 61 3 74 -11 13 -13 15 -21 6 -36 -6 -11 -16 -22 -24
-25 -7 -3 -11 -14 -8 -25 4 -15 -3 -23 -33 -35 -50 -21 -104 -61 -104 -78 0
-17 22 -26 63 -26 18 0 60 -10 95 -22 l62 -22 -6 -35 c-9 -47 -13 -54 -28 -42
-9 8 -11 -3 -8 -49 5 -72 -8 -130 -53 -230 -18 -41 -41 -110 -50 -152 -10 -46
-24 -83 -36 -94 -18 -16 -20 -16 -39 1 -11 10 -20 14 -20 9 0 -19 24 -34 55
-34 24 1 41 13 89 66 54 60 58 67 47 90 -18 41 -13 59 33 115 30 37 49 74 61
117 l18 63 -24 27 c-14 16 -16 21 -5 12 17 -13 22 -11 53 25 l35 40 34 -40
c45 -53 97 -138 119 -197 24 -65 15 -95 -38 -118 -26 -12 -35 -20 -22 -20 38
0 82 37 100 83 15 40 15 48 1 98 -12 40 -13 64 -6 94 13 56 14 55 -29 55 -37
0 -42 4 -87 66 -44 63 -46 68 -29 80 23 17 79 28 105 21 16 -4 20 0 20 22 0
37 17 51 63 51 l39 0 -7 37 c-11 58 -21 70 -77 92 -29 11 -48 20 -41 20 6 1
26 13 43 27 34 29 28 43 -20 44 -14 0 -30 4 -37 8 -6 4 23 8 65 8 125 3 252
10 258 16 3 3 -7 9 -21 12 -40 10 -19 26 33 26 34 0 43 3 32 10 -21 14 -58 12
-151 -6 -68 -14 -92 -15 -148 -5 -99 18 -111 33 -21 25 94 -7 126 3 135 47 10
46 -14 62 -80 56 -27 -3 -59 -9 -70 -13 -12 -5 -8 3 13 20 38 33 39 42 10 73
l-21 23 24 0 c36 0 123 44 147 75 32 40 38 90 19 161 -30 110 -19 164 53 285
22 36 40 73 40 82 0 23 -50 22 -112 -2z"/>
<path d="M520 1146 c0 -9 5 -16 10 -16 6 0 10 4 10 9 0 6 -4 13 -10 16 -5 3
-10 -1 -10 -9z"/>
<path d="M640 1110 c0 -5 5 -10 11 -10 5 0 7 5 4 10 -3 6 -8 10 -11 10 -2 0
-4 -4 -4 -10z"/>
<path d="M412 1071 c-14 -9 0 -36 23 -39 11 -2 17 -1 13 4 -4 4 -3 13 2 19 8
9 5 14 -9 18 -10 2 -23 2 -29 -2z"/>
<path d="M523 1043 c-15 -5 -5 -33 12 -33 7 0 15 6 18 14 6 15 -10 26 -30 19z"/>
<path d="M670 997 c0 -9 -8 -17 -17 -17 -15 0 -15 -2 -4 -9 9 -6 11 -16 7 -27
-6 -15 -5 -16 5 -7 7 8 18 9 28 4 23 -13 22 30 -1 54 -16 17 -18 17 -18 2z"/>
<path d="M347 978 c-6 -22 -13 -28 -35 -28 l-27 0 24 -19 c20 -15 22 -21 12
-39 -17 -31 -13 -37 10 -16 16 15 24 16 39 6 28 -17 31 -15 24 12 -4 18 0 28
17 40 l23 16 -30 0 c-24 0 -32 6 -40 28 l-10 27 -7 -27z"/>
<path d="M776 905 c4 -8 10 -15 14 -15 4 0 10 7 14 15 4 10 -1 15 -14 15 -13
0 -18 -5 -14 -15z"/>
<path d="M565 870 c-6 -27 -11 -30 -43 -30 l-37 0 29 -23 c27 -22 28 -26 18
-56 l-11 -32 30 22 c27 19 32 19 47 7 35 -31 41 -30 29 3 -11 28 -10 33 16 55
l28 24 -34 0 c-30 0 -37 4 -46 30 -5 17 -12 30 -15 30 -2 0 -7 -13 -11 -30z"/>
<path d="M266 791 c-4 -5 -2 -12 3 -15 5 -4 12 -2 15 3 4 5 2 12 -3 15 -5 4
-12 2 -15 -3z"/>
<path d="M712 781 c-12 -7 -3 -25 15 -28 16 -3 24 24 9 30 -7 3 -18 2 -24 -2z"/>
<path d="M409 768 c-9 -30 -6 -37 12 -27 11 5 17 14 14 20 -6 8 -24 13 -26 7z"/>
<path d="M616 664 c-9 -24 -7 -31 9 -31 20 0 25 20 10 34 -10 10 -14 9 -19 -3z"/>
<path d="M471 662 c0 -7 -11 -17 -23 -22 -13 -5 -17 -9 -10 -9 6 -1 12 -9 12
-18 0 -12 8 -18 24 -18 13 0 22 4 19 8 -3 4 1 14 7 22 10 12 9 15 -3 15 -9 0
-18 8 -20 18 -3 9 -5 11 -6 4z"/>
</g>
</svg>
