<?xml version="1.0" standalone="no"?>
<!DOCTYPE svg PUBLIC "-//W3C//DTD SVG 20010904//EN"
 "http://www.w3.org/TR/2001/REC-SVG-20010904/DTD/svg10.dtd">
<svg version="1.0" xmlns="http://www.w3.org/2000/svg"
 width="191.000000pt" height="264.000000pt" viewBox="0 0 191.000000 264.000000"
 preserveAspectRatio="xMidYMid meet">

<g transform="translate(0.000000,264.000000) scale(0.100000,-0.100000)"
fill="#000000" stroke="none">
<path d="M945 2598 c-82 -49 -206 -169 -260 -252 -138 -213 -162 -497 -68
-821 34 -118 35 -214 4 -313 -26 -80 -97 -201 -87 -147 4 17 9 75 13 131 10
163 -30 296 -122 408 -36 44 -154 134 -156 119 -2 -11 -2 -2 11 -135 21 -206
-6 -324 -105 -458 -136 -185 -198 -407 -161 -580 42 -198 185 -352 427 -457
89 -38 305 -97 321 -87 6 4 -14 20 -43 36 -186 101 -223 246 -126 490 55 136
76 245 60 312 -9 40 -8 44 6 37 9 -5 35 -29 59 -52 48 -49 76 -123 66 -176 -9
-48 7 -42 68 26 65 72 123 168 146 241 22 71 21 209 -1 268 -16 42 -16 42 5
31 41 -22 105 -96 133 -154 41 -82 46 -196 15 -320 -32 -127 -20 -206 43 -290
23 -31 27 -16 15 57 -18 104 20 225 81 258 18 9 19 5 19 -73 -1 -90 10 -120
78 -227 42 -66 56 -114 55 -192 0 -71 -36 -144 -93 -190 -21 -16 -38 -34 -38
-39 0 -5 28 2 63 15 268 101 445 265 510 471 17 56 21 93 21 185 -2 140 -20
216 -98 400 -148 349 -183 606 -105 768 12 24 19 46 15 49 -3 3 -38 -14 -78
-37 -98 -58 -207 -169 -246 -251 -34 -70 -57 -185 -46 -231 6 -30 6 -30 -18
-14 -31 20 -148 157 -205 238 -23 33 -62 99 -87 147 -132 257 -146 514 -41
763 18 43 30 80 26 82 -4 3 -38 -14 -76 -36z"/>
</g>
</svg>
