<?xml version="1.0" standalone="no"?>
<!DOCTYPE svg PUBLIC "-//W3C//DTD SVG 20010904//EN"
 "http://www.w3.org/TR/2001/REC-SVG-20010904/DTD/svg10.dtd">
<svg version="1.0" xmlns="http://www.w3.org/2000/svg"
 width="225.000000pt" height="225.000000pt" viewBox="0 0 225.000000 225.000000"
 preserveAspectRatio="xMidYMid meet">

<g transform="translate(0.000000,225.000000) scale(0.100000,-0.100000)"
fill="#000000" stroke="none">
<path d="M675 1374 c-286 -84 -489 -119 -591 -104 -27 4 -50 6 -52 5 -2 -2 4
-15 13 -29 57 -87 255 -88 483 -4 31 11 109 43 173 69 65 27 131 49 147 49
104 0 147 -92 108 -235 -17 -64 -39 -107 -89 -174 -37 -50 -38 -54 -16 -48 13
4 29 7 36 7 24 0 87 66 109 115 17 36 24 68 24 114 0 52 3 62 15 57 8 -3 22
-9 31 -12 10 -5 8 4 -10 30 -13 20 -27 55 -31 79 -24 141 -92 157 -350 81z"/>
<path d="M1292 1407 c-33 -19 -48 -45 -66 -117 -9 -35 -27 -75 -39 -89 -21
-23 -21 -24 -2 -16 50 19 50 19 47 -29 -6 -73 23 -155 73 -202 37 -36 99 -63
113 -50 2 3 -14 26 -36 53 -52 61 -78 120 -93 208 -15 93 -1 148 44 175 47 29
87 25 200 -21 276 -113 369 -139 492 -139 91 0 148 21 183 65 12 16 21 29 20
30 -2 1 -28 -1 -58 -5 -109 -14 -292 18 -594 104 -165 47 -241 56 -284 33z"/>
<path d="M677 1275 c-214 -100 -305 -125 -459 -125 -43 0 -78 -4 -78 -9 0 -5
15 -19 34 -31 108 -66 320 -10 553 146 62 42 113 78 113 80 0 11 -39 -3 -163
-61z"/>
<path d="M1490 1282 c184 -131 333 -194 465 -196 64 -1 87 3 114 19 60 35 52
45 -39 45 -144 0 -256 31 -462 129 -157 74 -179 75 -78 3z"/>
<path d="M795 1260 c-148 -110 -346 -198 -492 -219 l-58 -8 49 -23 c40 -18 61
-21 108 -17 107 10 271 103 396 226 50 49 92 102 80 101 -2 -1 -39 -28 -83
-60z"/>
<path d="M1388 1293 c17 -31 152 -155 214 -196 32 -21 88 -52 125 -70 57 -26
80 -31 143 -32 59 0 82 4 105 20 l30 19 -58 8 c-136 17 -285 81 -447 189 -132
89 -123 84 -112 62z"/>
<path d="M800 1190 c-110 -113 -221 -194 -300 -219 -62 -20 -69 -28 -26 -37
49 -9 108 2 159 28 52 26 185 158 220 218 24 42 60 121 55 119 -2 0 -50 -49
-108 -109z"/>
<path d="M1355 1270 c25 -89 179 -267 269 -310 56 -27 129 -36 166 -22 24 9
24 10 5 17 -132 47 -254 132 -371 259 -53 57 -73 74 -69 56z"/>
<path d="M887 1189 c-64 -131 -136 -216 -243 -286 -36 -24 57 -3 115 25 40 20
64 41 92 82 40 59 82 182 77 227 -3 24 -8 18 -41 -48z"/>
<path d="M1320 1250 c0 -34 26 -133 49 -186 40 -89 119 -152 214 -168 43 -8
49 5 11 23 -77 35 -152 122 -226 265 -34 65 -47 84 -48 66z"/>
</g>
</svg>
