<?xml version="1.0" standalone="no"?>
<!DOCTYPE svg PUBLIC "-//W3C//DTD SVG 20010904//EN"
 "http://www.w3.org/TR/2001/REC-SVG-20010904/DTD/svg10.dtd">
<svg version="1.0" xmlns="http://www.w3.org/2000/svg"
 width="225.000000pt" height="225.000000pt" viewBox="0 0 225.000000 225.000000"
 preserveAspectRatio="xMidYMid meet">

<g transform="translate(0.000000,225.000000) scale(0.100000,-0.100000)"
fill="#000000" stroke="none">
<path d="M373 1743 c-23 -8 -14 -35 28 -80 99 -108 182 -367 233 -728 5 -39 5
-39 -36 30 -88 148 -223 243 -358 253 -57 4 -70 2 -70 -10 0 -8 37 -53 83 -99
86 -89 153 -197 177 -288 15 -56 15 -175 1 -229 l-12 -42 -204 0 c-205 0 -230
-4 -205 -35 19 -22 2211 -22 2230 0 25 30 0 35 -174 35 l-174 0 -12 48 c-50
197 -4 391 122 507 33 30 64 55 69 55 6 0 9 10 7 23 -3 20 -7 22 -63 19 -107
-6 -213 -69 -282 -169 -20 -29 -38 -51 -40 -49 -8 8 28 198 52 274 33 103 65
176 115 259 23 36 39 73 37 82 -4 21 -40 17 -92 -10 -121 -63 -223 -199 -310
-412 l-32 -78 -13 73 c-16 92 -62 221 -98 273 -33 47 -69 55 -64 15 13 -112
12 -228 -2 -333 -23 -166 -30 -176 -45 -76 -15 101 -55 229 -80 260 -25 31
-51 19 -51 -24 0 -40 -31 -165 -62 -250 l-22 -61 -9 39 c-11 54 8 253 33 344
23 81 52 145 82 178 30 32 20 58 -23 57 -113 -3 -229 -134 -279 -317 l-17 -62
-17 60 c-47 164 -122 304 -206 379 -62 56 -179 103 -217 89z m218 -162 c49
-55 113 -174 143 -266 9 -28 27 -98 40 -155 19 -87 26 -106 43 -108 17 -3 21
7 32 80 27 174 97 328 172 376 18 11 35 20 36 18 2 -2 -7 -27 -20 -57 -50
-114 -62 -189 -62 -395 0 -147 3 -195 14 -207 7 -10 18 -17 23 -17 14 0 73
133 103 235 41 139 39 137 58 64 15 -60 28 -150 45 -314 6 -61 10 -70 27 -70
17 0 23 14 42 100 29 126 63 354 63 420 1 37 3 46 10 33 19 -32 51 -192 58
-287 6 -85 9 -96 26 -96 16 0 27 22 57 114 70 208 172 385 262 454 20 15 37
27 39 27 2 0 -13 -34 -33 -76 -77 -157 -121 -340 -123 -509 -1 -104 0 -110 20
-113 16 -2 23 6 35 40 18 57 101 179 141 210 38 29 118 71 118 62 0 -3 -16
-24 -35 -47 -68 -80 -115 -213 -115 -332 0 -48 15 -161 26 -197 5 -17 -32 -18
-674 -18 l-680 0 5 118 c5 107 3 123 -20 193 -32 95 -80 177 -147 252 l-52 58
51 -20 c139 -53 246 -183 311 -381 36 -106 43 -118 63 -102 16 14 14 61 -14
282 -41 318 -106 544 -200 696 l-23 37 43 -24 c24 -13 66 -48 92 -78z"/>
</g>
</svg>
