<?xml version="1.0" standalone="no"?>
<!DOCTYPE svg PUBLIC "-//W3C//DTD SVG 20010904//EN"
 "http://www.w3.org/TR/2001/REC-SVG-20010904/DTD/svg10.dtd">
<svg version="1.0" xmlns="http://www.w3.org/2000/svg"
 width="318.000000pt" height="159.000000pt" viewBox="0 0 318.000000 159.000000"
 preserveAspectRatio="xMidYMid meet">

<g transform="translate(0.000000,159.000000) scale(0.100000,-0.100000)"
fill="#000000" stroke="none">
<path d="M1338 1286 c-81 -29 -277 -135 -488 -264 -345 -212 -477 -278 -536
-269 -44 7 -100 -9 -118 -35 -18 -25 -12 -42 18 -56 63 -28 194 -26 182 4 -7
17 -4 17 39 0 32 -14 111 -37 222 -66 31 -8 41 -14 36 -26 -3 -8 3 -24 12 -34
25 -27 103 -27 137 -1 23 19 28 19 176 3 136 -14 152 -18 152 -35 0 -56 52
-87 143 -87 56 0 65 -3 70 -20 7 -27 45 -40 136 -47 101 -7 151 11 151 57 0
20 -9 39 -25 54 -29 27 -105 51 -135 43 -11 -3 -20 -1 -20 4 0 5 55 9 123 9
67 0 152 3 190 7 63 6 67 5 67 -15 0 -44 78 -39 144 9 28 20 52 29 78 29 35 0
38 -2 28 -19 -5 -11 -10 -31 -10 -45 0 -14 -5 -26 -10 -26 -18 0 -60 -48 -60
-68 0 -27 65 -52 134 -52 59 0 106 27 106 61 0 14 7 19 29 19 16 0 43 3 60 6
24 5 31 3 31 -9 0 -8 8 -18 18 -22 24 -10 225 -19 256 -11 67 17 76 84 20 146
-63 70 -150 76 -222 15 l-28 -24 -28 35 c-19 24 -23 35 -14 38 7 2 56 14 109
25 88 20 98 20 132 6 46 -19 126 -19 151 0 12 9 19 27 19 47 0 18 4 36 9 39 5
3 34 -1 65 -9 95 -24 132 11 74 69 -37 37 -82 39 -108 6 l-17 -23 -266 126
c-146 69 -353 173 -460 231 -310 168 -405 199 -597 199 -88 0 -121 -5 -175
-24z"/>
<path d="M3079 729 c-13 -13 -19 -30 -17 -47 3 -23 8 -27 38 -30 27 -2 41 3
58 21 28 29 21 52 -20 66 -39 14 -34 15 -59 -10z"/>
<path d="M48 674 c-40 -17 -59 -51 -37 -66 28 -19 169 9 169 33 0 12 -41 37
-70 43 -14 3 -42 -2 -62 -10z"/>
<path d="M2918 604 c-16 -8 -28 -23 -28 -33 0 -57 164 -108 202 -63 36 41 32
74 -13 97 -36 19 -126 19 -161 -1z"/>
<path d="M162 595 c-19 -8 -32 -20 -30 -27 7 -20 49 -38 90 -38 48 0 63 34 28
62 -27 21 -44 22 -88 3z"/>
<path d="M502 565 c-41 -18 -40 -45 2 -60 25 -8 31 -6 53 19 41 48 11 70 -55
41z"/>
<path d="M575 460 c-13 -21 15 -50 49 -50 39 0 53 22 30 45 -17 17 -69 20 -79
5z"/>
<path d="M2815 448 l-28 -22 23 -18 c32 -26 101 -24 126 3 19 21 18 21 -5 40
-31 25 -82 24 -116 -3z"/>
<path d="M1103 385 c-54 -23 -38 -61 30 -72 36 -5 83 13 106 41 12 14 8 18
-22 31 -45 18 -72 18 -114 0z"/>
<path d="M1862 330 c-50 -30 -36 -45 41 -45 81 0 105 16 68 46 -30 25 -67 24
-109 -1z"/>
</g>
</svg>
