<?xml version="1.0" standalone="no"?>
<!DOCTYPE svg PUBLIC "-//W3C//DTD SVG 20010904//EN"
 "http://www.w3.org/TR/2001/REC-SVG-20010904/DTD/svg10.dtd">
<svg version="1.0" xmlns="http://www.w3.org/2000/svg"
 width="225.000000pt" height="225.000000pt" viewBox="0 0 225.000000 225.000000"
 preserveAspectRatio="xMidYMid meet">

<g transform="translate(0.000000,225.000000) scale(0.100000,-0.100000)"
fill="#000000" stroke="none">
<path d="M980 2239 c-394 -45 -763 -336 -905 -714 -133 -352 -78 -765 143
-1061 269 -361 703 -528 1142 -438 418 86 764 430 862 856 30 130 30 354 0
486 -27 120 -78 243 -144 351 -63 102 -232 278 -328 340 -235 152 -489 212
-770 180z m255 -179 c357 -41 674 -301 784 -645 183 -569 -202 -1161 -798
-1225 -438 -47 -849 220 -990 645 -146 442 59 924 484 1138 69 34 207 76 285
86 93 12 133 12 235 1z"/>
<path d="M1290 1235 l-345 -345 -150 151 c-83 83 -162 157 -177 165 -39 20
-73 17 -105 -10 -22 -19 -28 -32 -28 -65 0 -41 5 -46 211 -251 202 -202 211
-210 249 -210 39 0 49 9 430 390 387 387 390 390 390 431 0 53 -38 89 -93 89
-34 0 -54 -17 -382 -345z"/>
</g>
</svg>
