<?xml version="1.0" standalone="no"?>
<!DOCTYPE svg PUBLIC "-//W3C//DTD SVG 20010904//EN"
 "http://www.w3.org/TR/2001/REC-SVG-20010904/DTD/svg10.dtd">
<svg version="1.0" xmlns="http://www.w3.org/2000/svg"
 width="198.000000pt" height="255.000000pt" viewBox="0 0 198.000000 255.000000"
 preserveAspectRatio="xMidYMid meet">

<g transform="translate(0.000000,255.000000) scale(0.100000,-0.100000)"
fill="#000000" stroke="none">
<path d="M644 2526 c-29 -24 -29 -26 -27 -127 2 -155 -27 -144 372 -144 402 0
371 -12 371 145 0 156 30 144 -365 148 l-323 3 -28 -25z"/>
<path d="M793 2173 l-33 -4 0 -258 0 -258 -77 -28 c-292 -103 -503 -302 -611
-575 -52 -131 -67 -219 -66 -375 2 -154 18 -233 74 -368 34 -82 132 -237 175
-277 l27 -25 708 0 708 0 27 25 c43 40 133 182 170 268 57 131 79 237 79 387
0 146 -17 241 -66 364 -108 274 -321 474 -610 576 l-78 28 0 258 0 259 -154 0
c-84 0 -173 2 -197 4 -24 2 -59 2 -76 -1z m363 -682 c254 -53 483 -238 589
-477 47 -107 59 -169 59 -324 1 -125 -2 -155 -22 -220 -27 -85 -81 -195 -125
-257 l-30 -43 -637 0 -637 0 -30 43 c-44 62 -98 172 -125 257 -20 65 -23 94
-22 225 0 142 2 155 33 245 47 138 99 220 210 331 84 83 109 102 202 148 176
87 349 110 535 72z"/>
<path d="M882 1345 c-54 -24 -100 -64 -121 -108 -22 -46 -39 -195 -27 -242 4
-16 36 -58 70 -94 35 -36 71 -81 80 -98 l17 -33 84 0 c79 0 85 1 102 26 10 14
48 59 84 99 72 80 79 98 79 215 0 114 -58 200 -157 236 -50 17 -169 17 -211
-1z m43 -270 c32 -31 31 -46 -1 -79 -36 -36 -85 -36 -113 0 -12 15 -21 32 -21
39 0 7 9 24 21 39 28 35 80 36 114 1z m241 0 c27 -27 26 -54 -4 -87 -23 -27
-78 -23 -107 7 -32 31 -32 58 1 84 36 29 79 27 110 -4z m-148 -174 c-2 -20 -9
-26 -28 -26 -20 0 -26 6 -28 27 -2 15 2 37 9 49 l12 23 19 -24 c11 -13 18 -35
16 -49z"/>
<path d="M569 870 c-18 -16 -42 -37 -51 -45 -28 -24 -23 -79 8 -104 32 -25 43
-26 87 -5 l34 16 112 -57 c61 -31 108 -61 105 -66 -3 -5 -68 -41 -143 -79
-127 -63 -139 -67 -154 -53 -14 14 -21 15 -43 4 -23 -10 -25 -16 -20 -44 4
-18 8 -50 10 -72 5 -45 34 -75 75 -75 43 0 71 26 71 66 l0 34 165 82 165 83
165 -83 c158 -79 165 -83 165 -112 0 -60 71 -91 120 -52 14 11 23 32 26 57 2
22 6 54 10 72 5 28 3 34 -20 44 -22 11 -29 10 -43 -4 -15 -14 -27 -10 -154 53
-75 38 -140 73 -143 78 -3 5 44 35 105 67 l111 58 35 -17 c44 -21 55 -20 87 5
33 26 36 80 5 107 -11 9 -33 29 -49 45 -42 40 -90 34 -90 -12 0 -24 -15 -34
-165 -111 l-164 -85 -165 85 c-153 79 -165 87 -168 115 -4 43 -43 46 -89 5z"/>
</g>
</svg>
